<svg id="svg" version="1.1" xmlns="http://www.w3.org/2000/svg" xmlns:xlink="http://www.w3.org/1999/xlink" width="400" height="300" viewBox="0, 0, 400,300"><g id="svgg"><path id="path0" d="M158.583 56.922 C 158.485 57.385,158.279 58.305,158.124 58.965 C 157.969 59.625,157.641 61.380,157.394 62.866 C 156.962 65.462,156.141 70.092,154.813 77.419 C 154.469 79.317,153.999 81.948,153.769 83.265 C 153.538 84.581,153.284 85.830,153.203 86.040 C 153.088 86.340,150.512 86.422,141.195 86.422 L 129.332 86.422 129.332 127.532 L 129.332 168.642 185.896 168.642 L 242.461 168.642 242.461 165.101 C 242.461 161.037,242.566 160.818,244.353 161.186 C 246.184 161.563,253.653 162.651,253.749 162.555 C 253.794 162.510,254.035 161.330,254.284 159.931 C 254.986 156.003,255.867 151.196,256.731 146.587 C 257.163 144.276,257.767 141.035,258.072 139.385 C 258.377 137.734,258.904 134.899,259.242 133.083 C 259.580 131.268,260.203 127.892,260.625 125.581 C 261.048 123.271,261.661 119.962,261.988 118.230 C 262.315 116.497,262.838 113.661,263.150 111.928 C 263.463 110.195,264.074 106.887,264.510 104.576 C 265.261 100.588,265.815 97.599,267.068 90.773 C 267.371 89.122,267.910 86.219,268.265 84.321 C 269.481 77.825,269.985 74.869,269.895 74.763 C 269.787 74.635,266.472 74.025,261.365 73.194 C 259.302 72.858,256.129 72.334,254.314 72.031 C 252.498 71.727,249.210 71.194,247.007 70.846 C 244.803 70.498,242.710 70.143,242.355 70.055 C 242.001 69.968,240.023 69.625,237.959 69.292 C 235.896 68.959,232.656 68.426,230.758 68.107 C 228.860 67.788,225.686 67.259,223.706 66.932 C 219.896 66.302,213.179 65.182,207.202 64.180 C 205.221 63.848,202.048 63.326,200.150 63.021 C 196.664 62.460,190.400 61.414,183.796 60.290 C 179.372 59.537,174.573 58.758,169.244 57.928 C 167.016 57.581,164.721 57.177,164.142 57.030 C 163.564 56.883,162.348 56.674,161.440 56.566 C 160.533 56.459,159.558 56.305,159.275 56.225 C 158.899 56.119,158.712 56.308,158.583 56.922 M169.692 66.324 C 171.013 66.503,173.106 66.842,174.344 67.077 C 175.581 67.312,177.877 67.714,179.445 67.970 C 187.238 69.245,190.069 69.712,193.098 70.223 C 194.914 70.529,198.222 71.061,200.450 71.405 C 202.678 71.749,204.732 72.103,205.015 72.191 C 205.298 72.279,207.188 72.621,209.216 72.950 C 211.244 73.280,214.456 73.805,216.354 74.119 C 218.252 74.432,221.493 74.960,223.556 75.293 C 225.619 75.626,227.644 75.982,228.057 76.084 C 228.470 76.186,230.495 76.536,232.558 76.862 C 234.621 77.188,237.794 77.703,239.610 78.005 C 241.425 78.308,244.261 78.772,245.911 79.036 C 247.562 79.300,250.060 79.723,251.463 79.978 C 252.866 80.232,255.214 80.630,256.680 80.861 C 260.393 81.448,260.178 80.469,258.520 89.272 C 257.328 95.597,256.668 99.128,255.995 102.776 C 255.037 107.966,253.872 114.194,253.217 117.629 C 252.887 119.362,252.369 122.131,252.066 123.781 C 251.764 125.431,251.159 128.672,250.722 130.983 C 250.285 133.293,249.654 136.669,249.320 138.485 C 248.152 144.820,247.597 147.799,247.276 149.437 C 247.099 150.345,246.879 151.544,246.787 152.101 C 246.607 153.192,245.491 153.305,243.265 152.459 L 242.461 152.153 242.461 119.287 L 242.461 86.422 202.418 86.422 C 179.100 86.422,162.306 86.309,162.210 86.152 C 162.118 86.004,162.257 84.755,162.519 83.377 C 162.780 81.998,163.244 79.520,163.549 77.869 C 163.854 76.219,164.247 74.126,164.421 73.218 C 164.596 72.311,164.958 70.353,165.227 68.867 C 165.806 65.660,165.799 65.675,166.635 65.856 C 166.996 65.934,168.372 66.144,169.692 66.324 M233.685 127.457 L 233.761 160.240 186.048 160.240 L 138.335 160.240 138.335 127.557 C 138.335 101.691,138.413 94.842,138.710 94.722 C 138.916 94.638,160.353 94.593,186.347 94.622 L 233.608 94.674 233.685 127.457 M144.944 118.005 L 144.952 135.184 146.045 133.983 C 146.647 133.323,148.432 131.367,150.013 129.636 C 151.595 127.906,153.503 125.813,154.254 124.985 C 163.466 114.843,163.389 114.915,165.622 114.180 L 167.253 113.643 171.473 117.977 C 175.145 121.748,185.444 132.479,187.964 135.161 C 193.538 141.092,196.405 143.783,196.837 143.488 C 197.402 143.102,200.081 141.495,204.632 138.812 C 208.518 136.521,208.066 136.527,211.478 138.728 C 212.592 139.447,214.651 140.754,216.054 141.632 C 217.457 142.510,219.280 143.658,220.105 144.183 C 221.939 145.350,226.267 148.054,226.782 148.354 C 227.080 148.528,227.157 143.714,227.157 124.699 L 227.157 100.825 186.047 100.825 L 144.936 100.825 144.944 118.005 M213.173 106.943 C 218.429 110.024,218.758 116.742,213.821 120.180 L 212.097 121.380 209.015 121.380 C 203.088 121.380,199.543 116.924,201.043 111.355 C 202.229 106.951,208.990 104.492,213.173 106.943 M178.395 190.221 C 166.454 192.505,166.216 210.003,178.092 212.455 C 181.747 213.209,185.759 212.240,188.330 209.983 L 189.347 209.090 189.347 205.220 L 189.347 201.350 184.246 201.350 L 179.145 201.350 179.145 202.392 L 179.145 203.433 182.971 203.517 L 186.797 203.601 186.885 205.423 C 187.011 208.032,186.687 208.641,184.641 209.646 C 177.505 213.150,170.263 206.806,172.220 198.767 C 173.689 192.734,181.122 190.248,186.042 194.145 C 187.384 195.208,187.469 195.218,188.447 194.435 L 189.197 193.834 187.997 192.760 C 185.642 190.653,181.652 189.598,178.395 190.221 M252.643 190.237 C 241.101 192.303,241.029 210.342,252.554 212.488 C 260.042 213.883,265.729 209.064,265.699 201.350 C 265.670 193.828,259.920 188.934,252.643 190.237 M114.929 201.333 L 114.929 212.453 116.283 212.453 L 117.637 212.453 117.558 201.425 L 117.479 190.398 116.204 190.305 L 114.929 190.213 114.929 201.333 M123.244 190.435 C 123.127 190.552,123.031 195.554,123.031 201.550 L 123.031 212.453 124.381 212.453 L 125.731 212.453 125.731 203.241 C 125.731 197.666,125.840 194.141,126.006 194.314 C 126.157 194.470,126.770 195.881,127.368 197.449 C 127.966 199.017,128.578 200.570,128.727 200.900 C 128.876 201.230,129.971 203.965,131.160 206.977 C 133.639 213.255,133.891 213.491,134.993 210.577 C 136.289 207.152,136.491 206.641,139.027 200.381 C 140.414 196.960,141.635 194.248,141.742 194.355 C 141.848 194.461,141.935 198.577,141.935 203.501 L 141.935 212.453 143.136 212.453 L 144.336 212.453 144.336 201.350 L 144.336 190.248 142.584 190.248 C 140.547 190.248,140.971 189.652,138.476 196.014 C 136.576 200.857,135.378 203.810,134.426 206.002 L 133.774 207.502 133.064 206.002 C 132.674 205.176,132.350 204.401,132.344 204.279 C 132.338 204.157,132.055 203.414,131.714 202.629 C 131.374 201.843,130.122 198.770,128.932 195.799 L 126.769 190.398 125.113 190.309 C 124.202 190.261,123.361 190.317,123.244 190.435 M156.006 190.909 C 155.708 191.467,153.166 197.675,151.240 202.551 C 150.946 203.293,149.948 205.769,149.022 208.051 C 148.095 210.334,147.337 212.258,147.337 212.327 C 147.337 212.397,147.978 212.452,148.762 212.450 L 150.188 212.447 151.132 209.975 L 152.076 207.502 157.723 207.502 L 163.371 207.502 164.299 209.902 L 165.227 212.303 166.673 212.396 C 167.966 212.479,168.097 212.431,167.907 211.946 C 167.789 211.647,167.172 210.053,166.534 208.402 C 165.897 206.752,164.690 203.713,163.852 201.650 C 163.014 199.587,161.636 196.178,160.790 194.074 L 159.252 190.248 157.806 190.248 C 156.623 190.248,156.296 190.368,156.006 190.909 M194.149 201.350 L 194.149 212.453 201.350 212.453 L 208.552 212.453 208.552 211.403 L 208.552 210.353 202.701 210.353 L 196.849 210.353 196.849 206.302 L 196.849 202.251 202.551 202.251 L 208.252 202.251 208.252 201.200 L 208.252 200.150 202.551 200.150 L 196.849 200.150 196.849 196.399 L 196.849 192.648 202.701 192.648 L 208.552 192.648 208.552 191.448 L 208.552 190.248 201.350 190.248 L 194.149 190.248 194.149 201.350 M221.655 190.448 C 221.545 190.558,221.455 195.554,221.455 201.550 L 221.455 212.453 222.656 212.453 L 223.856 212.453 223.856 203.751 C 223.856 193.552,223.704 193.833,226.857 198.208 C 228.095 199.926,230.842 203.665,232.961 206.517 C 235.081 209.369,236.885 211.872,236.969 212.078 C 237.060 212.298,237.669 212.453,238.442 212.453 L 239.760 212.453 239.760 201.333 L 239.760 190.213 238.485 190.305 L 237.209 190.398 237.130 199.058 L 237.050 207.719 235.329 205.473 C 234.383 204.238,231.452 200.307,228.817 196.738 C 223.854 190.015,222.914 189.189,221.655 190.448 M268.172 190.443 C 268.059 190.556,267.967 191.098,267.967 191.648 L 267.967 192.648 271.568 192.648 L 275.169 192.648 275.169 202.551 L 275.169 212.453 276.369 212.453 L 277.569 212.453 277.569 202.551 L 277.569 192.648 281.188 192.648 L 284.807 192.648 284.714 191.523 L 284.621 190.398 276.499 190.318 C 272.032 190.274,268.284 190.330,268.172 190.443 M256.971 192.523 C 266.390 194.952,265.017 209.890,255.311 210.586 C 249.076 211.034,244.804 204.577,247.012 198.042 C 248.530 193.546,252.470 191.363,256.971 192.523 M158.385 194.367 C 158.562 194.825,159.447 197.089,160.351 199.400 C 161.254 201.710,162.086 203.972,162.199 204.426 L 162.406 205.251 157.722 205.251 C 155.055 205.251,153.038 205.132,153.038 204.974 C 153.038 204.821,153.432 203.707,153.913 202.498 C 154.393 201.289,155.275 199.017,155.872 197.449 C 157.696 192.662,157.713 192.640,158.385 194.367 M125.737 222.416 C 125.246 223.566,120.929 234.306,119.670 237.509 C 119.022 239.160,118.313 240.915,118.094 241.410 C 117.109 243.639,117.128 243.706,118.704 243.603 L 120.129 243.511 121.026 241.260 C 122.170 238.391,121.725 238.570,127.740 238.564 C 133.683 238.559,133.328 238.389,134.454 241.771 L 135.083 243.661 136.545 243.661 L 138.008 243.661 137.596 242.536 C 137.369 241.917,135.426 237.022,133.278 231.658 L 129.373 221.905 127.703 221.815 C 126.202 221.735,126.002 221.796,125.737 222.416 M137.734 221.868 C 137.734 222.065,138.628 224.583,138.919 225.206 C 139.205 225.819,140.280 228.501,144.117 238.178 L 146.287 243.648 147.937 243.654 L 149.587 243.660 153.870 232.933 C 158.813 220.549,158.495 221.755,156.811 221.755 L 155.482 221.755 154.556 224.158 C 149.577 237.068,148.451 239.882,148.104 240.277 C 147.777 240.649,147.260 239.502,144.485 232.258 C 143.884 230.690,142.714 227.686,141.884 225.581 L 140.375 221.755 139.055 221.755 C 138.329 221.755,137.734 221.806,137.734 221.868 M166.151 221.966 C 166.072 222.098,165.241 224.164,164.304 226.557 C 163.367 228.950,162.340 231.480,162.021 232.180 C 161.701 232.879,161.440 233.577,161.440 233.731 C 161.440 233.884,161.245 234.392,161.007 234.859 C 160.547 235.759,157.539 243.269,157.539 243.516 C 157.539 244.209,160.496 243.579,160.680 242.846 C 160.792 242.398,161.144 241.460,161.462 240.762 C 161.780 240.064,162.041 239.365,162.041 239.208 C 162.041 238.664,163.022 238.560,168.171 238.560 L 173.352 238.560 173.830 239.685 C 174.093 240.304,174.578 241.452,174.909 242.236 C 175.501 243.639,175.531 243.661,176.877 243.661 C 177.629 243.661,178.245 243.609,178.245 243.546 C 178.245 243.483,177.619 241.896,176.854 240.020 C 176.089 238.144,174.144 233.301,172.532 229.257 L 169.601 221.905 167.948 221.816 C 167.038 221.767,166.230 221.835,166.151 221.966 M181.845 232.708 L 181.845 243.661 183.046 243.661 L 184.246 243.661 184.246 232.708 L 184.246 221.755 183.046 221.755 L 181.845 221.755 181.845 232.708 M189.047 232.708 L 189.047 243.661 195.499 243.661 L 201.950 243.661 201.950 242.611 L 201.950 241.560 196.849 241.560 L 191.748 241.560 191.748 231.658 L 191.748 221.755 190.398 221.755 L 189.047 221.755 189.047 232.708 M211.343 224.234 C 210.815 225.594,208.839 230.521,206.953 235.184 L 203.523 243.661 204.942 243.661 C 206.328 243.661,206.372 243.632,206.885 242.386 C 207.173 241.684,207.665 240.536,207.977 239.835 L 208.544 238.560 213.913 238.560 C 219.998 238.560,219.455 238.325,220.696 241.485 L 221.551 243.661 222.853 243.661 C 223.570 243.661,224.156 243.544,224.156 243.401 C 224.156 243.133,219.717 231.830,217.423 226.257 C 216.710 224.524,216.033 222.802,215.920 222.431 C 215.737 221.833,215.517 221.756,214.008 221.758 L 212.303 221.761 211.343 224.234 M227.757 232.734 L 227.757 243.713 233.983 243.612 C 239.867 243.516,240.271 243.473,241.320 242.821 C 245.004 240.530,244.600 234.339,240.667 232.794 C 239.935 232.507,239.930 232.485,240.506 232.152 C 243.903 230.191,244.641 225.977,242.045 223.380 C 240.658 221.994,239.384 221.759,233.233 221.757 L 227.757 221.755 227.757 232.734 M248.162 232.708 L 248.162 243.661 254.464 243.661 L 260.765 243.661 260.765 242.611 L 260.765 241.560 255.846 241.560 C 251.637 241.560,250.901 241.492,250.745 241.086 C 250.645 240.825,250.563 236.369,250.563 231.183 L 250.563 221.755 249.362 221.755 L 248.162 221.755 248.162 232.708 M264.966 232.708 L 264.966 243.661 272.018 243.661 L 279.070 243.661 279.070 242.617 L 279.070 241.573 273.293 241.492 L 267.517 241.410 267.430 238.110 C 267.294 232.986,266.705 233.458,273.224 233.458 L 278.770 233.458 278.770 232.415 L 278.770 231.371 273.143 231.289 L 267.517 231.208 267.517 227.607 L 267.517 224.006 273.293 223.925 L 279.070 223.843 279.070 222.799 L 279.070 221.755 272.018 221.755 L 264.966 221.755 264.966 232.708 M239.053 224.347 C 241.143 225.339,241.640 228.713,239.945 230.409 C 239.166 231.190,239.049 231.210,234.803 231.305 L 230.458 231.402 230.458 227.629 L 230.458 223.856 234.238 223.856 C 237.116 223.856,238.266 223.973,239.053 224.347 M128.650 226.557 C 129.001 227.464,129.893 229.760,130.632 231.658 C 131.371 233.556,132.066 235.413,132.175 235.784 L 132.374 236.459 127.702 236.459 C 124.559 236.459,123.031 236.353,123.031 236.135 C 123.031 235.816,123.270 235.179,125.949 228.357 C 127.795 223.656,127.583 223.797,128.650 226.557 M168.382 225.281 C 168.560 225.735,169.017 226.917,169.397 227.907 C 169.777 228.897,170.640 231.125,171.316 232.857 C 171.991 234.590,172.543 236.109,172.543 236.233 C 172.543 236.357,170.450 236.459,167.892 236.459 C 165.024 236.459,163.241 236.345,163.241 236.162 C 163.241 235.861,163.570 234.981,166.104 228.507 C 167.949 223.793,167.851 223.933,168.382 225.281 M215.675 228.357 C 216.352 230.090,217.323 232.565,217.831 233.856 C 218.339 235.148,218.755 236.262,218.755 236.332 C 218.755 236.561,209.491 236.465,209.359 236.234 C 209.288 236.110,209.929 234.254,210.783 232.108 C 211.638 229.962,212.664 227.365,213.064 226.336 C 213.947 224.059,214.015 224.112,215.675 228.357 M238.392 233.790 C 240.938 234.497,242.140 237.012,241.028 239.302 C 240.092 241.228,239.115 241.560,234.388 241.560 L 230.458 241.560 230.458 237.709 C 230.458 235.591,230.548 233.768,230.658 233.658 C 230.985 233.331,237.113 233.435,238.392 233.790 " stroke="none" fill="#5d5d5d" fill-rule="evenodd"></path><path id="path1" d="M0.000 150.038 L 0.000 300.075 200.000 300.075 L 400.000 300.075 400.000 150.038 L 400.000 0.000 200.000 0.000 L 0.000 0.000 0.000 150.038 M163.541 56.564 C 164.779 56.792,167.142 57.198,168.792 57.466 C 174.008 58.314,178.881 59.118,182.446 59.721 C 184.344 60.042,187.517 60.567,189.497 60.888 C 195.182 61.811,198.599 62.380,201.350 62.863 C 202.753 63.110,204.846 63.453,206.002 63.626 C 207.157 63.798,209.115 64.129,210.353 64.360 C 211.590 64.591,213.953 65.000,215.604 65.268 C 222.109 66.325,225.657 66.907,229.107 67.482 C 231.088 67.812,234.464 68.362,236.609 68.704 C 238.755 69.046,240.713 69.387,240.960 69.462 C 241.208 69.536,243.233 69.886,245.461 70.238 C 247.689 70.590,250.998 71.126,252.813 71.430 C 259.133 72.487,263.337 73.174,266.617 73.686 C 270.605 74.308,270.520 74.242,270.114 76.420 C 269.935 77.382,269.441 79.992,269.017 82.221 C 268.593 84.449,267.989 87.689,267.675 89.422 C 266.835 94.064,266.051 98.305,264.516 106.527 C 262.981 114.748,262.198 118.990,261.357 123.631 C 261.044 125.364,260.440 128.605,260.015 130.833 C 259.590 133.061,258.972 136.369,258.641 138.185 C 257.249 145.821,256.847 147.992,256.114 151.838 C 255.337 155.917,254.164 162.539,254.164 162.846 C 254.164 163.071,250.573 162.686,248.012 162.185 C 246.857 161.959,245.274 161.684,244.496 161.574 L 243.080 161.375 242.995 165.084 L 242.911 168.792 186.122 168.868 L 129.332 168.944 129.332 127.383 L 129.332 85.821 141.127 85.821 L 152.921 85.821 153.611 81.995 C 153.990 79.891,154.481 77.224,154.701 76.069 C 154.922 74.914,155.520 71.605,156.032 68.717 C 157.779 58.853,158.196 56.564,158.321 56.155 C 158.457 55.713,159.260 55.776,163.541 56.564 M166.096 66.358 C 165.950 66.749,165.389 69.679,164.152 76.519 C 163.838 78.252,163.370 80.818,163.112 82.221 C 162.853 83.623,162.641 85.008,162.641 85.296 C 162.641 85.794,164.733 85.821,202.376 85.821 C 224.231 85.821,242.325 85.903,242.586 86.004 C 243.015 86.168,243.061 89.367,243.061 119.144 C 243.061 137.271,243.162 152.165,243.286 152.241 C 243.410 152.317,244.135 152.473,244.898 152.587 L 246.286 152.795 246.941 149.241 C 247.301 147.286,247.853 144.336,248.168 142.686 C 248.483 141.035,249.093 137.794,249.522 135.484 C 249.952 133.173,250.558 129.932,250.869 128.282 C 251.181 126.632,251.724 123.728,252.077 121.830 C 252.429 119.932,252.971 117.029,253.280 115.379 C 253.589 113.728,254.194 110.488,254.623 108.177 C 255.053 105.866,255.659 102.626,255.971 100.975 C 256.282 99.325,256.823 96.422,257.173 94.524 C 257.524 92.626,258.069 89.722,258.385 88.072 C 259.358 82.996,259.500 81.916,259.216 81.740 C 259.067 81.648,257.768 81.388,256.330 81.162 C 254.891 80.936,250.068 80.131,245.611 79.373 C 241.155 78.615,235.821 77.729,233.758 77.403 C 231.695 77.077,229.805 76.748,229.557 76.673 C 229.310 76.597,227.824 76.339,226.257 76.100 C 223.354 75.657,220.473 75.184,214.179 74.117 C 212.239 73.788,209.066 73.249,207.127 72.920 C 202.026 72.055,198.256 71.428,195.349 70.963 C 193.946 70.739,188.747 69.864,183.796 69.019 C 178.845 68.175,173.173 67.223,171.193 66.905 C 169.212 66.587,167.290 66.242,166.920 66.138 C 166.487 66.016,166.195 66.094,166.096 66.358 M138.708 127.457 L 138.785 159.790 186.122 159.866 L 233.458 159.942 233.458 127.533 L 233.458 95.124 186.045 95.124 L 138.632 95.124 138.708 127.457 M227.457 124.703 C 227.457 144.192,227.382 148.862,227.073 148.784 C 226.705 148.691,218.978 143.924,212.003 139.486 C 210.188 138.332,208.562 137.326,208.390 137.252 C 208.218 137.179,205.847 138.455,203.121 140.090 C 198.432 142.901,196.429 144.036,196.160 144.036 C 196.095 144.036,193.156 141.032,189.630 137.359 C 186.103 133.687,180.558 127.914,177.307 124.531 C 174.057 121.148,170.468 117.383,169.332 116.165 L 167.266 113.951 165.405 114.629 C 164.038 115.128,163.213 115.675,162.294 116.694 C 161.606 117.456,160.354 118.822,159.511 119.730 C 158.668 120.638,156.637 122.866,154.998 124.681 C 153.359 126.497,151.390 128.657,150.622 129.482 C 149.855 130.308,148.311 131.995,147.192 133.233 C 146.072 134.471,145.040 135.529,144.896 135.584 C 144.751 135.640,144.636 127.908,144.636 118.105 L 144.636 100.525 186.047 100.525 L 227.457 100.525 227.457 124.703 M205.681 106.953 C 198.971 110.006,199.785 119.024,206.960 121.110 C 213.044 122.879,218.940 116.479,216.393 110.871 C 214.617 106.961,209.653 105.146,205.681 106.953 M183.157 190.095 C 185.351 190.559,187.733 191.877,188.776 193.203 L 189.394 193.988 188.545 194.667 C 187.494 195.508,187.100 195.518,186.259 194.722 C 180.769 189.529,171.975 193.842,172.132 201.650 C 172.272 208.607,179.531 212.597,185.354 208.918 L 186.646 208.102 186.646 205.935 L 186.647 203.769 182.821 203.685 L 178.995 203.601 178.902 202.319 L 178.810 201.036 184.153 201.118 L 189.497 201.200 189.581 205.146 L 189.664 209.091 188.381 210.209 C 184.970 213.178,179.544 213.906,175.517 211.936 C 165.456 207.013,167.559 191.767,178.545 189.985 C 180.863 189.609,180.866 189.609,183.157 190.095 M258.534 190.413 C 264.267 191.993,267.448 198.684,265.535 205.140 C 261.923 217.325,244.382 214.890,243.733 202.113 C 243.291 193.411,250.043 188.074,258.534 190.413 M117.629 201.517 L 117.629 212.786 116.204 212.695 L 114.779 212.603 114.700 201.425 L 114.621 190.248 116.125 190.248 L 117.629 190.248 117.629 201.517 M130.342 198.566 C 132.144 203.059,133.719 206.672,133.843 206.596 C 133.967 206.519,134.629 205.004,135.314 203.228 C 135.999 201.453,136.681 199.730,136.829 199.400 C 136.978 199.070,137.796 197.044,138.646 194.899 C 139.497 192.753,140.262 190.829,140.346 190.623 C 140.448 190.374,141.195 190.248,142.568 190.248 L 144.636 190.248 144.636 201.517 L 144.636 212.786 143.211 212.695 L 141.785 212.603 141.635 203.751 L 141.485 194.899 140.369 197.749 C 138.994 201.263,136.621 207.189,136.105 208.402 C 135.894 208.897,135.413 210.086,135.037 211.043 C 133.713 214.405,133.803 214.549,127.954 199.700 L 126.182 195.199 126.032 203.901 L 125.881 212.603 124.456 212.695 L 123.031 212.786 123.031 201.503 L 123.031 190.220 125.049 190.309 L 127.067 190.398 130.342 198.566 M163.947 201.229 C 168.695 213.092,168.614 212.753,166.711 212.753 C 165.177 212.753,165.077 212.646,163.987 209.827 L 163.146 207.652 157.788 207.652 L 152.430 207.652 151.863 208.927 C 151.551 209.629,151.056 210.783,150.765 211.492 L 150.234 212.781 148.710 212.692 C 146.776 212.579,146.502 213.701,151.536 201.118 L 155.884 190.248 157.718 190.248 L 159.552 190.248 163.947 201.229 M208.552 191.591 L 208.552 192.935 202.776 193.017 L 196.999 193.098 196.914 196.468 L 196.830 199.837 202.616 199.918 L 208.402 200.000 208.494 201.269 L 208.586 202.538 202.793 202.619 L 196.999 202.701 196.999 206.302 L 196.999 209.902 202.776 209.984 L 208.552 210.065 208.552 211.409 L 208.552 212.753 201.350 212.753 L 194.149 212.753 194.149 201.500 L 194.149 190.248 201.350 190.248 L 208.552 190.248 208.552 191.591 M225.546 191.823 C 226.174 192.689,228.792 196.234,231.363 199.700 C 233.935 203.166,236.268 206.335,236.549 206.743 C 237.035 207.450,237.059 207.070,237.059 198.866 L 237.059 190.248 238.563 190.248 L 240.067 190.248 239.989 201.425 L 239.910 212.603 238.560 212.687 L 237.209 212.771 234.959 209.698 C 233.721 208.008,232.236 205.983,231.658 205.199 C 231.080 204.414,229.460 202.203,228.057 200.286 C 226.654 198.369,225.207 196.440,224.841 196.000 L 224.175 195.199 224.166 203.992 L 224.156 212.786 222.731 212.695 L 221.305 212.603 221.226 201.802 C 221.135 189.332,221.001 190.248,222.921 190.248 C 224.366 190.248,224.435 190.289,225.546 191.823 M284.713 191.523 L 284.621 192.798 281.249 192.883 L 277.878 192.968 277.799 202.785 L 277.719 212.603 276.369 212.603 L 275.019 212.603 274.940 202.776 L 274.861 192.948 271.414 192.948 L 267.967 192.948 267.967 191.598 L 267.967 190.248 276.386 190.248 L 284.806 190.248 284.713 191.523 M253.113 192.616 C 243.767 195.021,245.107 210.334,254.666 210.351 C 265.191 210.369,266.127 193.578,255.659 192.547 C 254.754 192.457,253.608 192.489,253.113 192.616 M157.149 194.971 C 156.386 196.749,153.338 204.597,153.338 204.783 C 153.338 204.876,155.296 204.951,157.689 204.951 C 160.087 204.951,162.041 204.829,162.041 204.680 C 162.041 204.358,157.992 194.201,157.779 193.988 C 157.699 193.908,157.415 194.350,157.149 194.971 M129.722 221.980 C 129.901 222.567,130.064 222.984,133.517 231.658 C 134.864 235.041,136.086 238.080,136.233 238.410 C 136.983 240.098,138.335 243.530,138.335 243.745 C 138.335 243.880,137.578 243.950,136.652 243.901 L 134.970 243.811 134.010 241.410 L 133.049 239.010 127.782 238.928 C 121.951 238.837,122.258 238.740,121.410 240.960 C 120.208 244.109,120.347 243.961,118.571 243.961 C 116.549 243.961,116.288 245.026,121.373 232.558 C 123.629 227.029,125.548 222.269,125.638 221.980 C 125.771 221.554,126.153 221.455,127.682 221.455 C 129.212 221.455,129.592 221.553,129.722 221.980 M142.063 225.288 C 142.876 227.388,144.103 230.525,144.788 232.258 C 145.474 233.991,146.429 236.454,146.911 237.731 C 147.989 240.587,147.877 240.602,149.094 237.432 C 150.660 233.353,153.279 226.654,154.342 224.006 L 155.306 221.605 156.607 221.511 C 158.878 221.347,158.881 221.248,156.446 227.213 C 155.212 230.235,153.681 234.059,153.043 235.709 C 152.404 237.359,151.417 239.857,150.849 241.260 L 149.816 243.811 148.014 243.899 C 146.752 243.961,146.163 243.871,146.051 243.599 C 145.431 242.091,139.264 226.808,138.448 224.758 C 137.121 221.423,137.116 221.454,139.010 221.462 L 140.585 221.468 142.063 225.288 M174.124 232.516 C 179.287 245.435,178.943 244.012,176.879 243.901 L 175.213 243.811 174.238 241.410 L 173.264 239.010 167.964 238.928 L 162.663 238.846 162.207 239.729 C 161.956 240.214,161.468 241.365,161.124 242.286 L 160.497 243.961 158.868 243.961 C 156.958 243.961,156.980 244.046,158.160 241.216 C 158.666 240.003,159.328 238.335,159.631 237.509 C 160.184 236.002,160.936 234.126,161.435 233.008 C 161.656 232.515,164.507 225.420,165.747 222.281 C 166.053 221.507,166.187 221.455,167.888 221.455 L 169.704 221.455 174.124 232.516 M184.475 232.633 L 184.396 243.811 182.971 243.902 L 181.545 243.994 181.545 232.725 L 181.545 221.455 183.049 221.455 L 184.553 221.455 184.475 232.633 M191.977 231.426 L 192.056 241.246 197.078 241.328 L 202.101 241.410 202.101 242.611 L 202.101 243.811 195.574 243.892 L 189.047 243.973 189.047 232.698 L 189.047 221.422 190.473 221.514 L 191.898 221.605 191.977 231.426 M220.256 232.627 C 222.683 238.688,224.599 243.718,224.513 243.804 C 223.647 244.670,221.394 243.896,220.821 242.536 C 220.490 241.752,220.003 240.601,219.739 239.978 L 219.258 238.847 213.890 238.928 L 208.523 239.010 207.549 241.410 L 206.575 243.811 205.013 243.902 C 203.006 244.018,202.974 244.296,205.735 237.462 C 206.991 234.352,208.553 230.458,209.205 228.807 C 209.857 227.157,210.585 225.381,210.822 224.861 C 211.059 224.341,211.253 223.830,211.253 223.726 C 211.253 223.622,211.451 223.062,211.694 222.481 L 212.135 221.426 213.989 221.516 L 215.843 221.605 220.256 232.627 M240.523 222.019 C 244.402 223.782,245.070 229.319,241.693 231.722 L 240.659 232.457 241.781 233.183 C 244.699 235.071,245.048 240.030,242.425 242.340 C 240.859 243.719,239.522 243.961,233.452 243.961 L 227.757 243.961 227.757 232.708 L 227.757 221.455 233.533 221.462 C 238.488 221.468,239.482 221.547,240.523 222.019 M250.863 231.358 L 250.863 241.260 255.964 241.260 L 261.065 241.260 261.065 242.617 L 261.065 243.973 254.539 243.892 L 248.012 243.811 247.933 232.633 L 247.855 221.455 249.359 221.455 L 250.863 221.455 250.863 231.358 M279.370 222.806 L 279.370 224.156 273.518 224.156 L 267.667 224.156 267.667 227.607 L 267.667 231.058 273.143 231.062 C 279.224 231.067,279.457 231.125,279.317 232.590 L 279.220 233.608 273.443 233.690 L 267.667 233.771 267.667 237.516 L 267.667 241.260 273.518 241.260 L 279.370 241.260 279.370 242.616 L 279.370 243.972 272.093 243.891 L 264.816 243.811 264.738 232.633 L 264.659 221.455 272.014 221.455 L 279.370 221.455 279.370 222.806 M230.458 227.607 L 230.458 231.058 234.373 231.058 C 239.533 231.058,240.780 230.383,240.780 227.591 C 240.780 224.998,239.206 224.166,234.284 224.160 L 230.458 224.156 230.458 227.607 M127.269 225.708 C 127.101 226.149,126.229 228.377,125.331 230.659 C 124.433 232.942,123.606 235.113,123.494 235.484 L 123.290 236.159 127.662 236.159 C 132.092 236.159,132.336 236.092,131.741 235.030 C 131.581 234.743,130.689 232.551,129.759 230.158 C 127.608 224.623,127.652 224.702,127.269 225.708 M167.518 225.760 C 166.898 227.120,163.541 235.767,163.541 236.003 C 163.541 236.089,165.499 236.159,167.892 236.159 C 170.285 236.159,172.243 236.072,172.243 235.966 C 172.243 235.859,171.365 233.578,170.293 230.897 C 169.220 228.215,168.342 225.879,168.342 225.706 C 168.342 225.064,167.819 225.098,167.518 225.760 M213.151 226.801 C 211.864 230.165,210.387 233.928,209.920 235.034 L 209.444 236.159 213.936 236.159 L 218.428 236.159 217.651 234.134 C 215.509 228.542,214.286 225.568,214.026 225.314 C 213.904 225.194,213.510 225.863,213.151 226.801 M230.599 234.123 C 230.509 234.356,230.475 236.024,230.522 237.829 L 230.608 241.110 234.864 241.110 L 239.121 241.110 240.013 240.256 C 241.672 238.666,241.501 235.900,239.663 234.589 C 238.460 233.730,230.899 233.342,230.599 234.123 " stroke="none" fill="#f3f3f3" fill-rule="evenodd"></path><path id="path2" d="M138.479 127.382 C 138.479 145.206,138.515 152.454,138.560 143.488 C 138.604 134.522,138.604 119.938,138.560 111.080 C 138.515 102.221,138.479 109.557,138.479 127.382 M141.768 203.601 C 141.768 208.552,141.809 210.620,141.860 208.196 C 141.910 205.771,141.910 201.720,141.860 199.193 C 141.810 196.666,141.768 198.650,141.768 203.601 M265.936 201.350 C 265.936 201.928,265.998 202.164,266.073 201.875 C 266.149 201.587,266.149 201.114,266.073 200.825 C 265.998 200.536,265.936 200.773,265.936 201.350 M178.920 202.401 C 178.924 203.061,178.985 203.295,179.057 202.922 C 179.129 202.549,179.126 202.009,179.051 201.722 C 178.976 201.435,178.917 201.740,178.920 202.401 M194.374 241.484 C 195.735 241.539,197.963 241.539,199.325 241.484 C 200.686 241.428,199.572 241.382,196.849 241.382 C 194.126 241.382,193.012 241.428,194.374 241.484 M232.495 241.483 C 233.533 241.542,235.153 241.541,236.096 241.482 C 237.038 241.422,236.189 241.374,234.209 241.375 C 232.228 241.375,231.457 241.424,232.495 241.483 M253.353 241.484 C 254.805 241.539,257.101 241.539,258.454 241.483 C 259.808 241.428,258.620 241.383,255.814 241.383 C 253.008 241.383,251.901 241.429,253.353 241.484 M270.443 241.484 C 272.052 241.538,274.685 241.538,276.294 241.484 C 277.903 241.430,276.587 241.386,273.368 241.386 C 270.150 241.386,268.833 241.430,270.443 241.484 M157.514 243.755 C 157.649 243.891,158.285 243.956,158.925 243.900 L 160.090 243.798 158.679 243.654 C 157.902 243.574,157.378 243.620,157.514 243.755 M117.854 243.873 C 118.226 243.944,118.833 243.944,119.205 243.873 C 119.576 243.801,119.272 243.743,118.530 243.743 C 117.787 243.743,117.483 243.801,117.854 243.873 M135.859 243.873 C 136.230 243.944,136.838 243.944,137.209 243.873 C 137.581 243.801,137.277 243.743,136.534 243.743 C 135.791 243.743,135.488 243.801,135.859 243.873 M147.416 243.876 C 147.872 243.945,148.547 243.943,148.916 243.872 C 149.285 243.801,148.912 243.744,148.087 243.747 C 147.262 243.749,146.960 243.807,147.416 243.876 M176.069 243.873 C 176.440 243.944,177.048 243.944,177.419 243.873 C 177.791 243.801,177.487 243.743,176.744 243.743 C 176.002 243.743,175.698 243.801,176.069 243.873 M182.371 243.873 C 182.742 243.944,183.350 243.944,183.721 243.873 C 184.092 243.801,183.788 243.743,183.046 243.743 C 182.303 243.743,181.999 243.801,182.371 243.873 M192.439 243.885 C 194.223 243.938,197.058 243.938,198.741 243.885 C 200.424 243.831,198.965 243.788,195.499 243.788 C 192.033 243.788,190.656 243.832,192.439 243.885 M204.276 243.873 C 204.647 243.944,205.255 243.944,205.626 243.873 C 205.998 243.801,205.694 243.743,204.951 243.743 C 204.209 243.743,203.905 243.801,204.276 243.873 M222.281 243.873 C 222.652 243.944,223.260 243.944,223.631 243.873 C 224.002 243.801,223.698 243.743,222.956 243.743 C 222.213 243.743,221.909 243.801,222.281 243.873 M230.533 243.884 C 231.977 243.939,234.340 243.939,235.784 243.884 C 237.228 243.829,236.047 243.784,233.158 243.784 C 230.270 243.784,229.089 243.829,230.533 243.884 M251.238 243.885 C 253.012 243.938,255.915 243.938,257.689 243.885 C 259.464 243.832,258.012 243.788,254.464 243.788 C 250.915 243.788,249.464 243.832,251.238 243.885 M268.509 243.885 C 270.541 243.937,273.781 243.937,275.711 243.885 C 277.641 243.833,275.979 243.790,272.018 243.790 C 268.057 243.791,266.478 243.833,268.509 243.885 " stroke="none" fill="#9c9c9c" fill-rule="evenodd"></path><path id="path3" d="M196.399 62.402 C 196.975 62.663,198.582 62.833,198.325 62.605 C 198.256 62.545,197.659 62.413,196.999 62.312 C 196.163 62.185,195.981 62.212,196.399 62.402 M202.851 72.018 C 203.263 72.150,203.938 72.256,204.351 72.253 C 205.025 72.248,205.010 72.224,204.201 72.018 C 202.932 71.695,201.842 71.695,202.851 72.018 M164.028 74.880 C 163.925 75.148,163.855 75.661,163.872 76.019 C 163.891 76.430,163.993 76.284,164.149 75.621 C 164.411 74.506,164.340 74.068,164.028 74.880 M162.521 82.851 C 162.411 83.538,162.379 84.160,162.451 84.231 C 162.522 84.303,162.675 83.803,162.791 83.121 C 162.906 82.438,162.937 81.817,162.860 81.740 C 162.784 81.663,162.631 82.163,162.521 82.851 M259.152 84.659 C 258.902 85.909,259.145 86.152,259.415 84.921 C 259.529 84.403,259.559 83.916,259.483 83.839 C 259.407 83.763,259.258 84.131,259.152 84.659 M162.137 85.671 C 162.198 86.268,162.447 86.272,202.330 86.348 L 242.461 86.424 242.461 119.263 C 242.461 137.325,242.562 152.165,242.686 152.242 C 242.809 152.318,242.843 137.506,242.761 119.326 L 242.611 86.272 202.497 86.195 C 164.623 86.124,162.376 86.090,162.230 85.595 C 162.110 85.190,162.089 85.207,162.137 85.671 M153.038 85.771 C 153.038 86.031,149.957 86.140,141.110 86.193 L 129.182 86.264 141.017 86.347 C 152.140 86.424,153.935 86.318,153.243 85.626 C 153.131 85.514,153.038 85.579,153.038 85.771 M267.559 87.685 C 267.458 88.063,267.387 88.642,267.401 88.972 C 267.415 89.302,267.551 89.046,267.702 88.402 C 267.994 87.155,267.869 86.527,267.559 87.685 M155.889 94.746 C 201.265 94.951,233.688 94.952,233.562 94.749 C 233.486 94.625,212.129 94.556,186.104 94.596 C 160.078 94.636,146.482 94.703,155.889 94.746 M144.705 118.005 C 144.667 127.536,144.737 135.334,144.861 135.334 C 145.066 135.334,145.062 122.703,144.854 106.827 C 144.810 103.443,144.742 108.473,144.705 118.005 M227.230 124.624 C 227.172 143.679,227.080 148.529,226.782 148.361 C 226.484 148.193,226.483 148.231,226.777 148.548 C 227.449 149.273,227.461 148.806,227.382 124.654 L 227.303 100.675 227.230 124.624 M202.835 108.552 L 201.800 109.677 202.926 108.643 C 203.973 107.681,204.189 107.427,203.960 107.427 C 203.910 107.427,203.403 107.933,202.835 108.552 M214.854 108.477 C 215.414 109.055,215.939 109.527,216.022 109.527 C 216.104 109.527,215.714 109.055,215.154 108.477 C 214.594 107.899,214.068 107.427,213.986 107.427 C 213.903 107.427,214.294 107.899,214.854 108.477 M263.658 108.690 C 263.557 109.068,263.486 109.647,263.500 109.977 C 263.514 110.308,263.650 110.051,263.801 109.407 C 264.093 108.160,263.968 107.532,263.658 108.690 M254.014 112.228 C 253.898 112.910,253.867 113.532,253.944 113.609 C 254.021 113.686,254.174 113.186,254.284 112.498 C 254.394 111.810,254.425 111.189,254.353 111.118 C 254.282 111.046,254.129 111.546,254.014 112.228 M171.193 117.929 C 172.339 119.085,173.345 120.030,173.427 120.030 C 173.510 120.030,172.639 119.085,171.493 117.929 C 170.346 116.774,169.341 115.829,169.258 115.829 C 169.176 115.829,170.046 116.774,171.193 117.929 M160.376 118.305 L 159.190 119.580 160.465 118.394 C 161.651 117.291,161.878 117.029,161.651 117.029 C 161.602 117.029,161.028 117.603,160.376 118.305 M156.775 122.206 L 155.589 123.481 156.864 122.295 C 158.050 121.192,158.277 120.930,158.050 120.930 C 158.001 120.930,157.427 121.504,156.775 122.206 M177.644 124.681 C 178.708 125.754,179.645 126.632,179.728 126.632 C 179.810 126.632,179.008 125.754,177.944 124.681 C 176.881 123.608,175.944 122.731,175.861 122.731 C 175.779 122.731,176.581 123.608,177.644 124.681 M154.074 125.206 L 152.888 126.482 154.164 125.295 C 155.350 124.192,155.577 123.931,155.350 123.931 C 155.301 123.931,154.727 124.505,154.074 125.206 M185.296 132.633 C 186.276 133.623,187.146 134.434,187.228 134.434 C 187.311 134.434,186.576 133.623,185.596 132.633 C 184.616 131.643,183.747 130.833,183.665 130.833 C 183.582 130.833,184.316 131.643,185.296 132.633 M147.621 132.258 L 146.587 133.383 147.712 132.349 C 148.331 131.780,148.837 131.274,148.837 131.224 C 148.837 130.995,148.583 131.211,147.621 132.258 M193.248 140.885 C 194.312 141.958,195.249 142.836,195.331 142.836 C 195.414 142.836,194.612 141.958,193.548 140.885 C 192.485 139.812,191.548 138.935,191.465 138.935 C 191.383 138.935,192.185 139.812,193.248 140.885 M257.044 144.366 C 256.934 145.054,256.903 145.675,256.975 145.747 C 257.046 145.818,257.199 145.319,257.314 144.636 C 257.430 143.954,257.461 143.332,257.384 143.256 C 257.307 143.179,257.154 143.678,257.044 144.366 M247.603 146.637 C 247.580 146.995,247.484 147.535,247.389 147.837 C 247.226 148.358,247.235 148.359,247.559 147.853 C 247.747 147.560,247.843 147.020,247.773 146.653 C 247.644 145.987,247.644 145.987,247.603 146.637 M254.651 157.401 C 254.548 157.669,254.477 158.181,254.494 158.539 C 254.514 158.950,254.616 158.804,254.771 158.142 C 255.034 157.026,254.962 156.589,254.651 157.401 M242.788 161.258 C 242.556 161.537,242.473 162.853,242.536 165.234 L 242.632 168.792 242.696 165.176 C 242.738 162.844,242.889 161.433,243.121 161.200 C 243.319 161.002,243.403 160.840,243.308 160.840 C 243.212 160.840,242.978 161.028,242.788 161.258 M144.472 201.500 C 144.472 207.607,144.512 210.062,144.561 206.957 C 144.610 203.852,144.610 198.856,144.561 195.854 C 144.512 192.853,144.472 195.394,144.472 201.500 M254.239 192.255 C 254.527 192.330,255.000 192.330,255.289 192.255 C 255.578 192.179,255.341 192.118,254.764 192.118 C 254.186 192.118,253.950 192.179,254.239 192.255 M275.003 202.551 C 275.003 208.080,275.044 210.341,275.093 207.577 C 275.143 204.812,275.143 200.289,275.093 197.524 C 275.044 194.760,275.003 197.022,275.003 202.551 M277.704 202.551 C 277.704 208.080,277.744 210.341,277.794 207.577 C 277.843 204.812,277.843 200.289,277.794 197.524 C 277.744 194.760,277.704 197.022,277.704 202.551 M223.989 203.751 C 223.989 208.620,224.030 210.611,224.080 208.177 C 224.131 205.743,224.131 201.759,224.080 199.325 C 224.030 196.890,223.989 198.882,223.989 203.751 M246.458 201.350 C 246.458 202.423,246.512 202.862,246.579 202.326 C 246.645 201.789,246.645 200.911,246.579 200.375 C 246.512 199.839,246.458 200.278,246.458 201.350 M243.737 201.500 C 243.740 202.161,243.801 202.395,243.873 202.022 C 243.945 201.649,243.942 201.109,243.867 200.822 C 243.792 200.535,243.733 200.840,243.737 201.500 M263.235 201.350 C 263.235 201.928,263.297 202.164,263.373 201.875 C 263.448 201.587,263.448 201.114,263.373 200.825 C 263.297 200.536,263.235 200.773,263.235 201.350 M181.935 201.274 C 183.387 201.329,185.683 201.329,187.036 201.273 C 188.390 201.218,187.202 201.173,184.396 201.173 C 181.590 201.173,180.483 201.219,181.935 201.274 M199.640 202.474 C 201.258 202.529,203.824 202.528,205.342 202.474 C 206.860 202.420,205.536 202.375,202.401 202.376 C 199.265 202.376,198.023 202.420,199.640 202.474 M186.745 205.701 C 186.746 206.857,186.801 207.293,186.866 206.670 C 186.931 206.047,186.930 205.102,186.863 204.569 C 186.797 204.037,186.744 204.546,186.745 205.701 M152.034 207.577 C 151.958 207.701,154.503 207.802,157.689 207.802 C 160.876 207.802,163.421 207.701,163.344 207.577 C 163.268 207.453,160.723 207.352,157.689 207.352 C 154.656 207.352,152.111 207.453,152.034 207.577 M199.791 210.277 C 201.491 210.330,204.192 210.330,205.792 210.276 C 207.393 210.222,206.002 210.178,202.701 210.179 C 199.400 210.179,198.090 210.223,199.791 210.277 M125.928 221.680 C 125.851 221.804,126.417 221.865,127.185 221.816 C 129.377 221.675,129.643 221.528,127.775 221.490 C 126.835 221.471,126.004 221.557,125.928 221.680 M137.640 221.665 C 137.559 221.797,138.103 221.857,138.850 221.797 C 139.759 221.725,140.303 221.824,140.495 222.097 C 140.727 222.429,140.758 222.421,140.660 222.056 C 140.528 221.568,137.909 221.230,137.640 221.665 M155.739 221.623 C 156.854 221.866,158.384 221.908,158.251 221.693 C 158.170 221.562,157.471 221.471,156.696 221.490 C 155.922 221.509,155.491 221.569,155.739 221.623 M166.138 221.680 C 166.061 221.804,166.627 221.865,167.395 221.816 C 169.587 221.675,169.853 221.528,167.985 221.490 C 167.045 221.471,166.214 221.557,166.138 221.680 M181.682 221.832 C 181.603 222.039,181.575 227.069,181.620 233.010 L 181.703 243.811 181.774 232.800 L 181.845 221.790 183.121 221.675 L 184.396 221.560 183.111 221.508 C 182.316 221.475,181.772 221.599,181.682 221.832 M189.727 221.671 C 190.183 221.740,190.858 221.738,191.227 221.667 C 191.596 221.595,191.223 221.539,190.398 221.541 C 189.572 221.543,189.270 221.602,189.727 221.671 M213.128 221.670 C 213.582 221.739,214.325 221.739,214.779 221.670 C 215.233 221.602,214.861 221.545,213.953 221.545 C 213.046 221.545,212.674 221.602,213.128 221.670 M230.217 221.679 C 231.653 221.733,234.084 221.734,235.619 221.679 C 237.154 221.625,235.979 221.580,233.008 221.579 C 230.038 221.579,228.782 221.624,230.217 221.679 M249.356 221.668 L 250.554 221.790 250.640 231.300 L 250.725 240.810 250.719 231.208 L 250.713 221.605 249.435 221.576 L 248.158 221.547 249.356 221.668 M272.000 221.677 L 279.034 221.766 279.163 222.886 L 279.291 224.006 279.256 222.806 L 279.220 221.605 272.093 221.597 L 264.966 221.589 272.000 221.677 M267.481 227.607 C 267.482 229.587,267.531 230.359,267.589 229.321 C 267.648 228.283,267.648 226.662,267.588 225.720 C 267.529 224.777,267.481 225.626,267.481 227.607 M278.815 232.326 L 278.770 233.445 273.143 233.534 L 267.517 233.622 273.153 233.690 C 279.287 233.764,279.244 233.776,278.987 232.058 C 278.879 231.339,278.853 231.380,278.815 232.326 M232.495 233.681 C 233.533 233.740,235.153 233.739,236.096 233.680 C 237.038 233.620,236.189 233.572,234.209 233.573 C 232.228 233.574,231.457 233.622,232.495 233.681 M267.482 237.659 C 267.482 239.722,267.530 240.566,267.589 239.535 C 267.648 238.503,267.648 236.815,267.589 235.784 C 267.530 234.752,267.482 235.596,267.482 237.659 M241.330 237.659 C 241.330 238.237,241.392 238.473,241.467 238.185 C 241.543 237.896,241.543 237.423,241.467 237.134 C 241.392 236.845,241.330 237.082,241.330 237.659 M124.891 238.783 C 126.327 238.838,128.757 238.838,130.292 238.783 C 131.827 238.729,130.653 238.684,127.682 238.684 C 124.711 238.683,123.455 238.728,124.891 238.783 M165.266 238.783 C 166.793 238.838,169.291 238.838,170.818 238.783 C 172.344 238.729,171.095 238.684,168.042 238.684 C 164.989 238.684,163.740 238.729,165.266 238.783 M211.178 238.783 C 212.704 238.838,215.203 238.838,216.729 238.783 C 218.256 238.729,217.007 238.684,213.953 238.684 C 210.900 238.684,209.651 238.729,211.178 238.783 M260.841 242.611 C 260.844 243.271,260.906 243.506,260.977 243.132 C 261.049 242.759,261.046 242.219,260.971 241.932 C 260.896 241.645,260.838 241.950,260.841 242.611 M279.145 242.611 C 279.149 243.271,279.210 243.506,279.282 243.132 C 279.354 242.759,279.351 242.219,279.276 241.932 C 279.201 241.645,279.142 241.950,279.145 242.611 " stroke="none" fill="#949494" fill-rule="evenodd"></path><path id="path4" d="M162.381 85.296 L 162.341 86.122 202.476 86.048 L 242.611 85.974 202.646 85.896 L 162.682 85.819 162.552 85.145 C 162.441 84.569,162.416 84.590,162.381 85.296 M135.089 86.046 C 138.337 86.094,143.739 86.095,147.092 86.046 C 150.445 85.998,147.787 85.958,141.185 85.958 C 134.584 85.958,131.840 85.998,135.089 86.046 M242.832 119.037 C 242.793 137.223,242.862 152.165,242.986 152.242 C 243.189 152.368,243.188 129.009,242.982 97.824 C 242.939 91.305,242.871 100.851,242.832 119.037 M185.970 95.048 L 233.456 95.126 233.534 127.383 L 233.612 159.640 233.610 127.307 L 233.608 94.974 186.047 94.972 L 138.485 94.971 185.970 95.048 M165.266 100.750 C 176.695 100.794,195.398 100.794,206.827 100.750 C 218.256 100.707,208.905 100.671,186.047 100.671 C 163.188 100.671,153.837 100.707,165.266 100.750 M208.481 106.139 C 208.854 106.210,209.394 106.208,209.681 106.133 C 209.968 106.058,209.662 105.999,209.002 106.002 C 208.342 106.005,208.107 106.067,208.481 106.139 M205.926 106.536 C 204.922 106.940,205.109 107.145,206.152 106.782 C 206.647 106.609,207.052 106.414,207.052 106.347 C 207.052 106.169,206.687 106.230,205.926 106.536 M217.044 113.728 C 217.044 114.636,217.100 115.008,217.169 114.554 C 217.238 114.100,217.238 113.357,217.169 112.903 C 217.100 112.449,217.044 112.821,217.044 113.728 M200.836 113.878 C 200.838 114.704,200.897 115.006,200.966 114.550 C 201.034 114.093,201.033 113.418,200.961 113.049 C 200.890 112.680,200.834 113.053,200.836 113.878 M162.472 116.204 L 161.590 117.179 162.566 116.298 C 163.102 115.813,163.541 115.374,163.541 115.323 C 163.541 115.091,163.293 115.295,162.472 116.204 M215.141 118.605 C 214.584 119.306,214.365 119.689,214.655 119.457 C 215.201 119.018,216.487 117.329,216.275 117.329 C 216.209 117.329,215.698 117.903,215.141 118.605 M160.224 118.755 L 159.190 119.880 160.315 118.846 C 161.362 117.883,161.578 117.629,161.349 117.629 C 161.299 117.629,160.793 118.136,160.224 118.755 M172.693 119.730 C 173.673 120.720,174.542 121.530,174.625 121.530 C 174.707 121.530,173.973 120.720,172.993 119.730 C 172.013 118.740,171.144 117.929,171.062 117.929 C 170.979 117.929,171.713 118.740,172.693 119.730 M156.623 122.656 L 155.589 123.781 156.714 122.747 C 157.762 121.784,157.977 121.530,157.748 121.530 C 157.698 121.530,157.192 122.037,156.623 122.656 M153.774 125.806 L 152.588 127.082 153.863 125.896 C 155.049 124.792,155.277 124.531,155.050 124.531 C 155.001 124.531,154.427 125.105,153.774 125.806 M179.745 127.082 C 181.140 128.485,182.350 129.632,182.432 129.632 C 182.515 129.632,181.441 128.485,180.045 127.082 C 178.649 125.679,177.440 124.531,177.358 124.531 C 177.275 124.531,178.349 125.679,179.745 127.082 M260.632 126.198 C 260.519 126.800,260.486 127.353,260.560 127.427 C 260.633 127.500,260.786 127.067,260.899 126.465 C 261.012 125.863,261.044 125.310,260.971 125.237 C 260.897 125.163,260.745 125.596,260.632 126.198 M150.173 129.707 L 148.987 130.983 150.263 129.797 C 151.449 128.693,151.676 128.432,151.449 128.432 C 151.400 128.432,150.826 129.006,150.173 129.707 M186.197 133.833 C 187.675 135.319,188.952 136.534,189.035 136.534 C 189.117 136.534,187.975 135.319,186.497 133.833 C 185.018 132.348,183.741 131.133,183.658 131.133 C 183.576 131.133,184.718 132.348,186.197 133.833 M147.473 132.708 L 146.287 133.983 147.562 132.797 C 148.748 131.694,148.975 131.433,148.748 131.433 C 148.699 131.433,148.125 132.007,147.473 132.708 M193.098 141.035 C 194.411 142.356,195.552 143.436,195.635 143.436 C 195.717 143.436,194.711 142.356,193.398 141.035 C 192.086 139.715,190.944 138.635,190.862 138.635 C 190.779 138.635,191.786 139.715,193.098 141.035 M217.104 142.691 C 217.434 142.960,217.974 143.312,218.305 143.474 L 218.905 143.769 218.305 143.280 C 217.974 143.012,217.434 142.659,217.104 142.497 L 216.504 142.202 217.104 142.691 M138.635 160.015 C 138.635 160.139,160.004 160.207,186.122 160.168 C 212.239 160.128,225.911 160.060,216.504 160.018 C 171.127 159.813,138.635 159.811,138.635 160.015 M242.961 161.340 C 242.851 161.450,242.761 163.138,242.761 165.090 L 242.761 168.641 185.971 168.718 L 129.182 168.795 186.047 168.793 L 242.911 168.792 243.061 164.966 C 243.143 162.861,243.200 161.139,243.186 161.140 C 243.172 161.140,243.071 161.230,242.961 161.340 M114.773 201.350 L 114.779 212.603 116.206 212.631 L 117.633 212.658 116.285 212.539 L 114.936 212.421 114.852 201.259 L 114.767 190.098 114.773 201.350 M239.831 201.259 L 239.760 212.420 238.335 212.533 L 236.909 212.645 238.344 212.699 C 240.208 212.769,240.080 213.678,239.985 201.049 L 239.902 190.098 239.831 201.259 M221.300 201.500 L 221.305 212.603 222.733 212.631 L 224.160 212.658 222.811 212.539 L 221.463 212.421 221.378 201.409 L 221.294 190.398 221.300 201.500 M172.227 193.173 L 171.193 194.299 172.318 193.264 C 172.937 192.696,173.443 192.189,173.443 192.139 C 173.443 191.910,173.189 192.126,172.227 193.173 M196.849 192.873 C 196.848 192.997,198.638 193.063,200.825 193.020 C 208.078 192.878,208.774 192.766,202.776 192.707 C 199.516 192.675,196.849 192.749,196.849 192.873 M269.704 192.871 C 270.742 192.929,272.363 192.929,273.305 192.870 C 274.248 192.810,273.398 192.762,271.418 192.763 C 269.437 192.763,268.666 192.812,269.704 192.871 M279.445 192.870 C 280.394 192.929,281.947 192.929,282.896 192.870 C 283.845 192.810,283.068 192.762,281.170 192.762 C 279.272 192.762,278.496 192.810,279.445 192.870 M125.731 203.374 L 125.731 212.420 124.379 212.539 L 123.027 212.658 124.454 212.631 L 125.881 212.603 126.032 203.751 C 126.114 198.882,126.080 194.770,125.956 194.614 C 125.833 194.457,125.731 198.399,125.731 203.374 M169.035 201.500 C 169.037 202.491,169.093 202.860,169.160 202.320 C 169.226 201.781,169.225 200.971,169.157 200.520 C 169.088 200.069,169.034 200.510,169.035 201.500 M202.759 200.072 L 208.218 200.163 208.340 201.359 L 208.461 202.555 208.432 201.278 L 208.402 200.000 202.851 199.990 L 197.299 199.980 202.759 200.072 M189.465 205.251 C 189.465 207.479,189.512 208.391,189.570 207.277 C 189.628 206.163,189.628 204.340,189.570 203.226 C 189.512 202.112,189.465 203.023,189.465 205.251 M181.033 203.674 C 182.154 203.732,183.909 203.731,184.934 203.673 C 185.958 203.614,185.041 203.567,182.896 203.567 C 180.750 203.568,179.912 203.616,181.033 203.674 M153.235 205.026 C 153.311 205.150,155.316 205.251,157.689 205.251 C 160.063 205.251,162.068 205.150,162.144 205.026 C 162.221 204.902,160.216 204.801,157.689 204.801 C 155.163 204.801,153.158 204.902,153.235 205.026 M260.296 208.327 L 259.415 209.302 260.390 208.421 C 260.926 207.936,261.365 207.497,261.365 207.446 C 261.365 207.214,261.118 207.418,260.296 208.327 M262.697 209.827 L 261.815 210.803 262.791 209.921 C 263.327 209.437,263.766 208.998,263.766 208.946 C 263.766 208.714,263.518 208.918,262.697 209.827 M254.239 210.559 C 254.527 210.635,255.000 210.635,255.289 210.559 C 255.578 210.484,255.341 210.422,254.764 210.422 C 254.186 210.422,253.950 210.484,254.239 210.559 M147.113 212.153 C 147.200 212.478,147.687 212.612,148.861 212.633 L 150.488 212.663 148.993 212.539 C 148.171 212.471,147.384 212.254,147.245 212.059 C 147.068 211.812,147.028 211.840,147.113 212.153 M142.615 212.668 C 143.071 212.737,143.746 212.736,144.115 212.664 C 144.484 212.593,144.111 212.537,143.286 212.539 C 142.461 212.541,142.159 212.599,142.615 212.668 M166.021 212.668 C 166.477 212.737,167.152 212.736,167.521 212.664 C 167.890 212.593,167.517 212.537,166.692 212.539 C 165.866 212.541,165.564 212.599,166.021 212.668 M197.674 212.677 C 199.696 212.729,203.005 212.729,205.026 212.677 C 207.048 212.625,205.394 212.583,201.350 212.583 C 197.307 212.583,195.653 212.625,197.674 212.677 M275.694 212.665 C 276.065 212.736,276.673 212.736,277.044 212.665 C 277.416 212.593,277.112 212.535,276.369 212.535 C 275.626 212.535,275.323 212.593,275.694 212.665 M252.738 212.960 C 253.027 213.036,253.500 213.036,253.788 212.960 C 254.077 212.885,253.841 212.823,253.263 212.823 C 252.686 212.823,252.449 212.885,252.738 212.960 M184.382 232.558 C 184.382 238.747,184.422 241.279,184.471 238.185 C 184.519 235.090,184.519 230.026,184.471 226.932 C 184.422 223.837,184.382 226.369,184.382 232.558 M247.998 232.558 C 247.998 238.747,248.038 241.279,248.087 238.185 C 248.135 235.090,248.135 230.026,248.087 226.932 C 248.038 223.837,247.998 226.369,247.998 232.558 M264.802 232.558 C 264.802 238.747,264.842 241.279,264.891 238.185 C 264.940 235.090,264.940 230.026,264.891 226.932 C 264.842 223.837,264.802 226.369,264.802 232.558 M191.882 231.508 C 191.882 236.954,191.923 239.225,191.972 236.553 C 192.022 233.882,192.022 229.426,191.973 226.651 C 191.923 223.876,191.882 226.062,191.882 231.508 M232.346 224.079 C 233.466 224.137,235.222 224.136,236.247 224.078 C 237.271 224.019,236.354 223.972,234.209 223.973 C 232.063 223.973,231.225 224.021,232.346 224.079 M270.609 224.080 C 272.309 224.134,275.010 224.133,276.610 224.079 C 278.210 224.026,276.819 223.982,273.518 223.982 C 270.218 223.982,268.908 224.026,270.609 224.080 M167.428 225.382 C 167.244 225.726,167.159 226.074,167.240 226.155 C 167.321 226.236,167.477 226.020,167.586 225.675 C 167.696 225.328,167.930 225.137,168.110 225.248 C 168.304 225.368,168.348 225.309,168.221 225.103 C 167.925 224.623,167.813 224.663,167.428 225.382 M243.737 227.307 C 243.740 227.967,243.801 228.202,243.873 227.828 C 243.945 227.455,243.942 226.915,243.867 226.628 C 243.792 226.341,243.733 226.647,243.737 227.307 M232.333 231.280 C 233.447 231.338,235.270 231.338,236.384 231.280 C 237.498 231.223,236.587 231.175,234.359 231.175 C 232.131 231.175,231.219 231.223,232.333 231.280 M270.458 231.282 C 272.076 231.336,274.642 231.335,276.160 231.281 C 277.678 231.227,276.354 231.183,273.218 231.183 C 270.083 231.183,268.840 231.228,270.458 231.282 M279.145 232.408 C 279.149 233.068,279.210 233.303,279.282 232.930 C 279.354 232.556,279.351 232.016,279.276 231.729 C 279.201 231.443,279.142 231.748,279.145 232.408 M123.031 236.234 C 123.031 236.358,125.048 236.459,127.514 236.459 C 129.980 236.459,132.060 236.358,132.137 236.234 C 132.213 236.110,130.196 236.009,127.653 236.009 C 125.111 236.009,123.031 236.110,123.031 236.234 M163.241 236.234 C 163.241 236.358,165.258 236.459,167.724 236.459 C 170.190 236.459,172.270 236.358,172.347 236.234 C 172.423 236.110,170.406 236.009,167.863 236.009 C 165.321 236.009,163.241 236.110,163.241 236.234 M211.628 236.382 C 212.907 236.438,215.000 236.438,216.279 236.382 C 217.558 236.326,216.512 236.280,213.953 236.280 C 211.395 236.280,210.349 236.326,211.628 236.382 M201.800 242.611 C 201.800 243.322,201.902 243.841,202.026 243.765 C 202.149 243.688,202.251 243.169,202.251 242.611 C 202.251 242.052,202.149 241.533,202.026 241.457 C 201.902 241.380,201.800 241.899,201.800 242.611 M242.292 242.236 L 241.410 243.211 242.386 242.329 C 242.922 241.845,243.361 241.406,243.361 241.354 C 243.361 241.122,243.113 241.326,242.292 242.236 " stroke="none" fill="#a4a4a4" fill-rule="evenodd"></path></g></svg>